<svg
  width="127"
  height="18"
  viewBox="0 0 127 18"
  fill="none"
  xmlns="http://www.w3.org/2000/svg"
>
  <path
    fillRule="evenodd"
    clipRule="evenodd"
    d="M15.7848 5.62703C16.027 5.20177 15.8655 4.69919 15.462 4.46723L7.95526 0.407959L5.77591 1.56775V3.5394L7.95526 2.34095L14.574 5.9363C15.018 6.20692 15.5426 6.05228 15.7848 5.62703ZM0.448597 4.46723L4.12121 2.49558V4.46723L1.33648 5.97496C0.932899 6.20692 0.408238 6.05228 0.166088 5.66568C-0.116421 5.24043 0.0450129 4.69919 0.448597 4.46723ZM6.62345 7.01881H9.24674C9.56962 7.01881 9.81173 7.25072 9.81173 7.56002V10.0729C9.81173 10.3822 9.56962 10.6141 9.24674 10.6141H6.62345C6.30057 10.6141 6.05841 10.3822 6.05841 10.0729V7.56002C6.05841 7.25072 6.30057 7.01881 6.62345 7.01881ZM12.5561 6.51619C13.0001 6.51619 13.3633 6.86416 13.3633 7.28939V14.6348C13.3633 15.06 13.0001 15.408 12.5561 15.408H3.27369C2.82974 15.408 2.46652 15.06 2.46652 14.6348V7.28939C2.46652 6.86416 2.82974 6.51619 3.27369 6.51619C3.71763 6.51619 4.08086 6.86416 4.08086 7.28939V13.8616H11.749V7.28939C11.749 6.86416 12.1122 6.51619 12.5561 6.51619Z"
    fill="white"
  />
  <path
    d="M6.90598 7.56006H9.045C9.16605 7.56006 9.2871 7.67605 9.2871 7.79204V9.84098C9.2871 9.95697 9.16605 10.073 9.045 10.073H6.90598C6.78493 10.073 6.66382 9.95697 6.66382 9.84098V7.79204C6.66382 7.67605 6.74454 7.56006 6.90598 7.56006Z"
    fill="#FFE03D"
  />
  <g clipPath="url(#clip0_493:21653)">
    <path
      fillRule="evenodd"
      clipRule="evenodd"
      d="M89.6374 14.4693C88.6577 15.083 87.4895 15.408 86.3213 15.408C85.7934 15.408 85.2282 15.2997 84.7008 15.1191C84.2485 14.9747 83.7963 14.722 83.4191 14.4332C83.0803 14.1444 82.7788 13.7834 82.5524 13.3863C82.3265 12.9892 82.1758 12.5199 82.1379 12.0505C82.1001 11.509 82.1001 10.9675 82.213 10.4621C82.4394 9.37908 82.9668 8.36823 83.7206 7.5379C84.0978 7.14082 84.5122 6.77981 85.0023 6.49099C85.982 5.87728 87.1502 5.55237 88.3184 5.55237C88.8463 5.55237 89.4115 5.62457 89.9389 5.80508C90.3912 5.94948 90.8434 6.16609 91.2206 6.49099C91.5599 6.77981 91.8615 7.17692 92.0873 7.57401C92.3132 7.97115 92.4267 8.44044 92.5018 8.90979C92.5396 9.41519 92.5396 9.95669 92.4267 10.4621C92.3132 11.0397 92.1251 11.5451 91.8615 12.0505C91.3714 13.0614 90.5798 13.8917 89.6374 14.4693ZM86.6979 13.5668C86.2835 13.5668 85.869 13.4946 85.4918 13.3141C85.1903 13.1697 84.9267 12.917 84.7381 12.6281C84.55 12.3394 84.4366 11.9783 84.3993 11.6535C84.3615 11.2563 84.3615 10.8592 84.4744 10.4982C84.55 10.1011 84.7008 9.70396 84.8888 9.34298C85.0774 8.98194 85.3038 8.65706 85.6053 8.36823C85.9069 8.07946 86.2456 7.86284 86.6228 7.68232C87.0372 7.5018 87.4517 7.42965 87.904 7.42965C88.3184 7.42965 88.7334 7.5018 89.0722 7.68232C89.3737 7.82673 89.6374 8.07946 89.826 8.36823C90.0146 8.65706 90.1275 9.01804 90.1653 9.34298C90.2031 9.74006 90.2031 10.1372 90.1275 10.4982C90.0524 10.8953 89.9016 11.2924 89.713 11.6535C89.5245 12.0144 89.2986 12.3394 88.9971 12.6281C88.3941 13.2419 87.5646 13.5668 86.6979 13.5668ZM75.4674 7.64621H76.8242C77.2764 7.64621 77.6909 7.71842 78.1053 7.86284C78.4447 8.00725 78.7084 8.18777 78.8969 8.47654C79.085 8.76537 79.1984 9.09025 79.2357 9.41519C79.2735 9.81227 79.2736 10.2094 79.1606 10.6065C79.085 11.0036 78.972 11.3646 78.7835 11.7257C78.5954 12.0505 78.369 12.3755 78.1053 12.6281C77.8038 12.8809 77.4645 13.0975 77.1257 13.2419C76.7107 13.3863 76.2584 13.4585 75.844 13.4585H74.3364L75.4674 7.64621ZM91.748 14.1444C91.748 14.1625 91.7385 14.1805 91.7291 14.1986C91.7196 14.2166 91.7107 14.2347 91.7107 14.2527C91.7107 14.2888 91.7107 14.3249 91.6729 14.361C91.6351 14.5415 91.635 14.722 91.7107 14.8664C91.7858 15.0108 91.8987 15.1191 92.0122 15.1913C92.1624 15.2635 92.351 15.2997 92.5396 15.2997C92.7654 15.2997 92.9919 15.2635 93.1804 15.1913C93.3312 15.1191 93.482 15.0108 93.5949 14.8664C93.7078 14.722 93.8207 14.5415 93.8964 14.361L95.8562 8.94584H95.8935L96.5722 14.5415C96.5722 14.6498 96.61 14.7942 96.6851 14.9025C96.7608 15.0469 96.8737 15.1191 96.9866 15.1913C97.1752 15.2997 97.4011 15.3358 97.5897 15.3358C97.8155 15.3358 98.0419 15.2997 98.2678 15.1913C98.4185 15.1191 98.5693 15.0108 98.7201 14.9025C98.8335 14.7942 98.9086 14.6859 98.9843 14.5415L101.886 8.94584H101.924L101.735 14.361C101.735 14.5415 101.735 14.722 101.811 14.8664C101.886 15.0108 101.962 15.1191 102.112 15.1913C102.489 15.3358 102.903 15.3358 103.281 15.1913C103.469 15.1191 103.619 15.0108 103.733 14.8664C103.846 14.722 103.959 14.5415 103.997 14.361C103.997 14.3249 103.997 14.2888 104.034 14.2527V14.1444L104.109 6.7076C104.109 6.5993 104.072 6.4549 104.034 6.34659C104.018 6.32309 104.002 6.29789 103.985 6.27209C103.924 6.17902 103.859 6.07821 103.77 6.02168C103.657 5.91338 103.506 5.84118 103.356 5.76897C103.205 5.69677 103.016 5.66067 102.828 5.66067C102.602 5.66067 102.338 5.69677 102.112 5.80508C101.886 5.87728 101.697 6.02168 101.509 6.16609C101.359 6.31049 101.245 6.4549 101.132 6.6354L98.3056 11.9061H98.2678L97.5518 6.6354C97.514 6.4549 97.4389 6.31049 97.3638 6.16609C97.2503 6.02168 97.0996 5.87728 96.9115 5.80508C96.7229 5.69677 96.4965 5.66067 96.2707 5.66067C96.0821 5.66067 95.8935 5.69677 95.7055 5.76897C95.5169 5.84118 95.3661 5.91338 95.2154 6.02168C95.0646 6.12996 94.9517 6.23824 94.8388 6.34652L94.8382 6.34659C94.7253 6.4549 94.6502 6.5632 94.6124 6.7076L91.748 14.1444ZM71.9249 14.722C71.887 14.5776 71.887 14.3971 71.9249 14.2527L73.3189 6.77981C73.3568 6.5993 73.4697 6.38269 73.5826 6.23829C73.7334 6.09389 73.8841 5.94948 74.0727 5.87728C74.2991 5.76897 74.4872 5.73288 74.7136 5.73288H77.2008C77.9167 5.73288 78.6705 5.84118 79.3492 6.09389C80.5174 6.49099 81.3463 7.46575 81.5349 8.62096C81.6478 9.30687 81.6478 9.99279 81.4971 10.6426C81.3463 11.3285 81.1205 11.9783 80.7433 12.5559C80.4045 13.0975 79.9522 13.6029 79.4243 14C78.8591 14.4332 78.2561 14.722 77.6152 14.9386C76.9371 15.1552 76.1833 15.2635 75.4674 15.2635H72.8667C72.7537 15.2635 72.603 15.2635 72.4901 15.2274C72.3771 15.1913 72.2636 15.1191 72.1507 15.0469C72.0378 14.9386 71.9621 14.8303 71.9249 14.722Z"
      fill="white"
    />
    <path
      fillRule="evenodd"
      clipRule="evenodd"
      d="M66.724 13.5307C66.2717 13.5307 65.8567 13.4585 65.4801 13.278C65.1408 13.1336 64.8393 12.8809 64.6134 12.592C64.387 12.3033 64.199 11.9783 64.0855 11.6173C63.9726 11.2563 63.9347 10.8592 63.9347 10.4621C63.9347 10.065 64.0104 9.66785 64.1233 9.30687C64.2363 8.94583 64.4248 8.62095 64.6512 8.33212C64.8771 8.04335 65.1786 7.82673 65.518 7.64621C65.8567 7.46569 66.2717 7.39354 66.724 7.39354C67.1763 7.39354 67.5907 7.46569 67.9301 7.64621C68.2689 7.82673 68.5704 8.04335 68.7968 8.33212C69.0226 8.62095 69.2112 8.94583 69.3242 9.30687C69.4371 9.66785 69.5127 10.065 69.5127 10.4621C69.5127 10.8592 69.4371 11.2563 69.362 11.6173C69.2491 11.9783 69.0605 12.3033 68.8341 12.592C68.6082 12.8809 68.3067 13.0975 67.9673 13.278C67.6286 13.4585 67.2136 13.5307 66.724 13.5307ZM51.8374 14.2527C51.8374 14.4693 51.875 14.6498 51.9881 14.8303C52.0634 14.9747 52.2142 15.083 52.365 15.1913C52.5157 15.2635 52.7041 15.2996 52.9303 15.2996C53.1564 15.2996 53.3448 15.2635 53.4956 15.1913C53.6463 15.1191 53.7971 15.0108 53.8725 14.8303C53.9855 14.6859 54.0232 14.4693 54.0232 14.2527V9.30687H54.0609L58.7339 14.8303C58.8096 14.9025 58.8847 14.9747 58.9981 15.0469C59.1111 15.1191 59.224 15.1552 59.3369 15.1913C59.4504 15.2274 59.5633 15.2635 59.6384 15.2635C59.8649 15.2635 60.0529 15.2274 60.2036 15.1552C60.3544 15.083 60.5052 14.9747 60.5808 14.7942C60.6937 14.6498 60.7316 14.4332 60.7316 14.2166V6.70759C60.7316 6.49099 60.6937 6.31049 60.5808 6.12998C60.4679 5.98557 60.3544 5.87727 60.2036 5.76897C60.0529 5.69677 59.8649 5.66067 59.6384 5.66067C59.4126 5.66067 59.224 5.69677 59.0732 5.76897C58.9225 5.84117 58.7717 5.94948 58.6966 6.12998C58.621 6.27438 58.5459 6.49099 58.5459 6.70759V11.7257H58.508L53.8348 6.09388C53.7594 6.02168 53.684 5.94948 53.571 5.87727C53.4579 5.80507 53.3448 5.76897 53.2318 5.73287C53.1187 5.69677 53.0056 5.66067 52.8926 5.66067C52.6665 5.66067 52.4781 5.69677 52.3273 5.76897C52.1765 5.84117 52.0258 5.94948 51.9504 6.12998C51.8374 6.27438 51.7997 6.49099 51.7997 6.70759V14.2527H51.8374ZM42.1894 14.2527C42.1894 14.4693 42.2271 14.6498 42.3402 14.8303C42.4532 14.9747 42.5663 15.083 42.717 15.1913C42.8678 15.2635 43.0562 15.2996 43.2823 15.2996C43.5085 15.2996 43.6969 15.2635 43.8476 15.1913C43.9984 15.1191 44.1492 15.0108 44.2245 14.8303C44.3376 14.6859 44.3753 14.4693 44.3753 14.2527V11.3646H48.4455V14.2527C48.4455 14.4693 48.4832 14.6498 48.5963 14.8303C48.6716 14.9747 48.8223 15.083 48.9731 15.1913C49.1239 15.2635 49.3123 15.2996 49.5384 15.2996C49.7645 15.2996 49.953 15.2635 50.1037 15.1913C50.2545 15.1191 50.4052 15.0108 50.4806 14.8303C50.5937 14.6859 50.6314 14.4693 50.6314 14.2527V6.70759C50.6314 6.49099 50.5937 6.31049 50.4806 6.12998C50.3676 5.98557 50.2545 5.87727 50.1037 5.76897C49.953 5.69677 49.7645 5.66067 49.5384 5.66067C49.3123 5.66067 49.1239 5.69677 48.9731 5.76897C48.8223 5.84117 48.6716 5.94948 48.5963 6.12998C48.4832 6.27438 48.4455 6.49099 48.4455 6.70759V9.52349H44.413V6.70759C44.413 6.49099 44.3753 6.31049 44.2622 6.12998C44.1492 5.98557 44.0361 5.87727 43.8854 5.76897C43.7346 5.69677 43.5461 5.66067 43.3201 5.66067C43.0939 5.66067 42.9054 5.69677 42.7547 5.76897C42.604 5.84117 42.4532 5.94948 42.3779 6.12998C42.2648 6.27438 42.2271 6.49099 42.2271 6.70759L42.1894 14.2527ZM33.2199 10.4621C33.2199 11.0036 33.2952 11.5451 33.446 12.0144C33.5967 12.5199 33.8228 12.9531 34.1243 13.3502C34.4259 13.7473 34.765 14.1083 35.1796 14.3971C35.5941 14.6859 36.0841 14.9386 36.574 15.083C37.1016 15.2274 37.667 15.3358 38.2699 15.3358C38.4584 15.3358 38.6468 15.3358 38.9106 15.2996C39.1367 15.2996 39.4005 15.2635 39.6267 15.1913C39.8905 15.1552 40.1166 15.083 40.3427 15.0108C40.5689 14.9386 40.795 14.8303 40.9834 14.722C41.1719 14.6137 41.3226 14.4693 41.4356 14.2888C41.5487 14.1444 41.5864 13.9278 41.6241 13.7473C41.6241 13.6751 41.5864 13.5668 41.5487 13.4946C41.511 13.3863 41.4357 13.2779 41.3603 13.2058C41.2849 13.0975 41.1719 13.0253 41.0588 12.9531C40.9457 12.8809 40.795 12.8448 40.6443 12.8448C40.4935 12.8448 40.3428 12.8809 40.192 12.917C40.0412 12.9892 39.8905 13.0253 39.7021 13.0975C39.5136 13.1697 39.3252 13.2419 39.0991 13.2779C38.873 13.3502 38.6091 13.3502 38.3076 13.3502C37.8554 13.3502 37.4408 13.2779 37.1016 13.0975C36.7625 12.9531 36.461 12.7364 36.2348 12.4477C36.0087 12.1588 35.8203 11.87 35.7072 11.509C35.5941 11.148 35.5188 10.787 35.5188 10.3899C35.5188 9.99279 35.5941 9.5957 35.7072 9.23466C35.8203 8.87368 36.0087 8.54875 36.2348 8.25992C36.461 7.97114 36.7625 7.75452 37.1016 7.6101C37.4408 7.46569 37.8554 7.35743 38.3076 7.35743C38.6091 7.35743 38.873 7.39354 39.0991 7.42964C39.3252 7.46569 39.5136 7.5379 39.6643 7.574C39.8151 7.64621 39.9659 7.68231 40.1166 7.71842C40.2674 7.75452 40.4181 7.79062 40.5312 7.79062C40.7196 7.79062 40.8703 7.75452 41.0211 7.68231C41.1719 7.6101 41.2472 7.50179 41.3226 7.35743C41.398 7.21302 41.4356 7.0686 41.4356 6.92419C41.4356 6.7437 41.3603 6.56319 41.2849 6.41879C41.1719 6.27438 41.0211 6.12998 40.8703 6.02168C40.6819 5.91337 40.4935 5.80507 40.2674 5.73287C40.0412 5.66067 39.8151 5.58847 39.589 5.55236L38.9106 5.44406C38.6845 5.40796 38.4961 5.40796 38.3076 5.40796C37.7046 5.40796 37.1393 5.48016 36.6117 5.66067C36.0841 5.80507 35.6318 6.05778 35.2173 6.34658C34.8027 6.63539 34.4259 6.9964 34.1621 7.39354C33.8605 7.79062 33.6344 8.25992 33.4836 8.72926C33.2952 9.41518 33.2199 9.92058 33.2199 10.4621ZM26.7754 14.2166C26.7754 14.4332 26.813 14.5776 26.9261 14.7581C27.0392 14.9025 27.1522 15.0108 27.3407 15.1191C27.5291 15.1913 27.7175 15.2274 27.9059 15.2274H31.7123C31.9385 15.2274 32.127 15.1913 32.2777 15.083C32.4284 15.0108 32.5415 14.8664 32.6169 14.7581C32.6923 14.6137 32.7299 14.4693 32.7299 14.3249C32.7299 14.1805 32.6923 14.0361 32.6169 13.8917C32.5415 13.7473 32.4284 13.639 32.2777 13.5668C32.127 13.4946 31.9385 13.4224 31.6747 13.4224H28.9612V11.4007H31.3732C31.5993 11.4007 31.8254 11.3646 31.9762 11.2563C32.1269 11.1841 32.24 11.0397 32.353 10.9314C32.4284 10.787 32.4661 10.6426 32.4661 10.4982C32.4661 10.3538 32.4284 10.2094 32.353 10.065C32.2776 9.92058 32.1646 9.81227 31.9762 9.74006C31.8254 9.66785 31.5993 9.5957 31.3732 9.5957H28.9612V7.64621H31.5993C31.8254 7.64621 32.0139 7.6101 32.1646 7.50179C32.3154 7.42964 32.4284 7.28523 32.5038 7.17691C32.5792 7.0325 32.6169 6.88809 32.6169 6.7437C32.6169 6.59929 32.5792 6.45489 32.5038 6.31049C32.4284 6.16608 32.3154 6.05778 32.1646 5.98557C32.0139 5.91337 31.8254 5.84117 31.5616 5.84117H27.9059C27.6421 5.84117 27.416 5.87727 27.2653 5.98557C27.0768 6.09388 26.9638 6.23828 26.8884 6.38269C26.813 6.56319 26.7754 6.7437 26.7754 6.96029V14.2166ZM21.4614 14.2527C21.4614 14.4693 21.4991 14.6498 21.6122 14.8303C21.7252 14.9747 21.8383 15.083 21.9891 15.1913C22.1398 15.2635 22.3283 15.2996 22.5543 15.2996C22.7805 15.2996 22.9689 15.2635 23.1196 15.1913C23.2704 15.1191 23.4212 15.0108 23.4965 14.8303C23.5719 14.6859 23.6473 14.4693 23.6473 14.2527V7.574H25.2679C25.494 7.574 25.6824 7.5379 25.8332 7.42964C25.9839 7.35743 26.097 7.21302 26.1723 7.10471C26.2477 6.96029 26.2854 6.8159 26.2854 6.6715C26.2854 6.52709 26.2477 6.38269 26.1723 6.23828C26.097 6.09388 25.9839 5.98557 25.8332 5.91337C25.6824 5.84117 25.494 5.76897 25.3055 5.76897H19.8785C19.6525 5.76897 19.5017 5.80507 19.351 5.91337C19.2002 5.98557 19.0872 6.12998 19.0118 6.23828C18.9364 6.38269 18.8987 6.52709 18.8987 6.6715C18.8987 6.8159 18.9364 6.96029 19.0118 7.10471C19.0872 7.24912 19.2002 7.35743 19.351 7.42964C19.5017 7.50179 19.6901 7.574 19.9163 7.574H21.4614V14.2527ZM66.724 15.3719C67.327 15.3719 67.8922 15.2996 68.4196 15.1191C68.9475 14.9747 69.3998 14.722 69.8143 14.4332C70.2287 14.1444 70.6059 13.7834 70.8695 13.3863C71.1711 12.9892 71.3969 12.5199 71.5477 12.0505C71.6984 11.5451 71.7741 11.0397 71.7741 10.4982C71.7741 9.95668 71.6984 9.45128 71.5477 8.94583C71.3969 8.44043 71.1711 8.00725 70.8695 7.6101C70.568 7.21302 70.2287 6.852 69.7764 6.56319C69.362 6.27438 68.8719 6.02168 68.3818 5.87727C67.8544 5.69677 67.327 5.62456 66.724 5.62456C66.121 5.62456 65.5552 5.69677 65.0279 5.87727C64.5005 6.02168 64.0482 6.27438 63.6332 6.56319C63.2188 6.852 62.8422 7.21302 62.5785 7.6101C62.277 8.00725 62.0506 8.47654 61.8998 8.94583C61.749 9.45128 61.6739 9.95668 61.6739 10.4982C61.6739 11.0397 61.749 11.5812 61.8998 12.0505C62.0506 12.5559 62.277 12.9892 62.5785 13.3863C62.8794 13.7834 63.2188 14.1444 63.6332 14.4332C64.0482 14.722 64.5378 14.9747 65.0279 15.1191C65.5931 15.2635 66.1583 15.3719 66.724 15.3719Z"
      fill="#FF681D"
    />
  </g>
  <rect x="111.506" y="5.89636" width="14.3223" height="8.95146" fill="white" />
  <path
    fillRule="evenodd"
    clipRule="evenodd"
    d="M123.896 12.6973C124.393 12.6973 124.623 12.9171 124.623 13.3566C124.623 13.5398 124.546 13.6863 124.393 13.8329C124.24 13.9428 124.087 14.016 123.896 14.016H119.881C119.614 14.016 119.384 13.9428 119.231 13.8329C119.078 13.6863 119.002 13.5398 119.002 13.32C119.002 13.1369 119.078 12.9171 119.193 12.7706L122.482 8.37498H119.805C119.308 8.37498 119.078 8.15518 119.078 7.75228C119.078 7.56911 119.155 7.42258 119.308 7.27611C119.461 7.12957 119.614 7.09294 119.805 7.09294H123.552C123.82 7.09294 124.049 7.16621 124.202 7.31274C124.355 7.45921 124.393 7.60574 124.393 7.78891C124.393 8.0087 124.317 8.22844 124.164 8.41161L120.914 12.7706L123.896 12.6973ZM113.036 7.67901C113.036 7.49585 113.113 7.31274 113.266 7.16621C113.419 7.01968 113.61 6.94641 113.801 6.94641C114.031 6.94641 114.222 7.01968 114.337 7.12958C114.49 7.27611 114.566 7.42258 114.566 7.67901V9.80354L117.09 7.23947C117.281 7.05631 117.472 6.98304 117.663 6.98304C117.854 6.98304 118.046 7.05631 118.199 7.16621C118.352 7.31274 118.428 7.45921 118.428 7.67901C118.428 7.86217 118.275 8.15518 117.931 8.44824L116.019 10.2798L118.39 12.624C118.657 12.9171 118.81 13.1735 118.81 13.3566C118.81 13.5764 118.734 13.7596 118.581 13.8695C118.428 13.9794 118.237 14.0526 118.046 14.0526C117.816 14.0526 117.587 13.9061 117.281 13.5764L114.643 10.8292V13.32C114.643 13.5032 114.566 13.6863 114.413 13.8329C114.26 13.9794 114.069 14.0526 113.878 14.0526C113.648 14.0526 113.457 13.9794 113.342 13.8695C113.189 13.7596 113.113 13.5764 113.113 13.3566V7.67901H113.036ZM112.195 5.40796H125.273C125.923 5.40796 126.42 5.92078 126.42 6.50686V14.309C126.42 14.9317 125.885 15.408 125.273 15.408H112.195C111.545 15.408 111.048 14.8951 111.048 14.309V6.50686C111.048 5.92078 111.583 5.40796 112.195 5.40796ZM108.18 13.2468C108.754 13.2468 109.25 13.6863 109.25 14.2724C109.25 14.8218 108.792 15.2981 108.18 15.2981C107.606 15.2981 107.109 14.8585 107.109 14.2724C107.109 13.6863 107.568 13.2468 108.18 13.2468Z"
    fill="#FF681D"
  />
  <defs>
    <clipPath id="clip0_493:21653">
      <rect
        width="85.2108"
        height="10"
        fill="white"
        transform="translate(18.8987 5.40796)"
      />
    </clipPath>
  </defs>
</svg>
