<svg width="125" height="16" viewBox="0 0 125 16" fill="none" xmlns="http://www.w3.org/2000/svg">
<path fill-rule="evenodd" clip-rule="evenodd" d="M15.6263 5.77185C15.8548 5.36673 15.7025 4.88796 15.3217 4.66699L8.23841 0.799988L6.18199 1.90484V3.7831L8.23841 2.64142L14.4838 6.06648C14.9027 6.32427 15.3978 6.17696 15.6263 5.77185ZM1.15517 4.66699L4.62063 2.78873V4.66699L1.99297 6.1033C1.61216 6.32427 1.11709 6.17696 0.888599 5.80867C0.622025 5.40356 0.774353 4.88796 1.15517 4.66699ZM6.98173 7.0977H9.45704C9.76171 7.0977 9.99016 7.31864 9.99016 7.61329V10.0072C9.99016 10.3018 9.76171 10.5227 9.45704 10.5227H6.98173C6.67705 10.5227 6.44855 10.3018 6.44855 10.0072V7.61329C6.44855 7.31864 6.67705 7.0977 6.98173 7.0977ZM12.5798 6.6189C12.9987 6.6189 13.3414 6.95038 13.3414 7.35547V14.3529C13.3414 14.758 12.9987 15.0895 12.5798 15.0895H3.82091C3.40201 15.0895 3.05927 14.758 3.05927 14.3529V7.35547C3.05927 6.95038 3.40201 6.6189 3.82091 6.6189C4.23981 6.6189 4.58255 6.95038 4.58255 7.35547V13.6164H11.8181V7.35547C11.8181 6.95038 12.1609 6.6189 12.5798 6.6189Z" fill="#161616"/>
<path d="M7.24828 7.61328H9.26664C9.38087 7.61328 9.49509 7.72378 9.49509 7.83427V9.78616C9.49509 9.89666 9.38087 10.0072 9.26664 10.0072H7.24828C7.13406 10.0072 7.01978 9.89666 7.01978 9.78616V7.83427C7.01978 7.72378 7.09594 7.61328 7.24828 7.61328Z" fill="#FFE03D"/>
<rect x="110.107" y="5.60001" width="14.2633" height="8.99999" fill="white"/>
<path fill-rule="evenodd" clip-rule="evenodd" d="M122.446 12.4378C122.941 12.4378 123.17 12.6588 123.17 13.1007C123.17 13.2849 123.094 13.4322 122.941 13.5795C122.789 13.69 122.637 13.7637 122.446 13.7637H118.448C118.181 13.7637 117.952 13.69 117.8 13.5795C117.648 13.4322 117.572 13.2849 117.572 13.0639C117.572 12.8798 117.648 12.6588 117.762 12.5115L121.037 8.09205H118.372C117.877 8.09205 117.648 7.87106 117.648 7.46598C117.648 7.28182 117.724 7.13449 117.877 6.98722C118.029 6.8399 118.181 6.80307 118.372 6.80307H122.104C122.37 6.80307 122.598 6.87673 122.751 7.02406C122.903 7.17132 122.941 7.31865 122.941 7.50281C122.941 7.7238 122.865 7.94473 122.713 8.12888L119.476 12.5115L122.446 12.4378ZM111.631 7.39231C111.631 7.20816 111.707 7.02406 111.86 6.87673C112.012 6.7294 112.202 6.65574 112.392 6.65574C112.621 6.65574 112.812 6.7294 112.926 6.8399C113.078 6.98722 113.154 7.13449 113.154 7.39231V9.52836L115.668 6.95039C115.858 6.76624 116.048 6.69257 116.239 6.69257C116.429 6.69257 116.62 6.76624 116.772 6.87673C116.924 7.02406 117.001 7.17132 117.001 7.39231C117.001 7.57647 116.848 7.87106 116.506 8.16572L114.602 10.0072L116.963 12.3642C117.229 12.6588 117.381 12.9166 117.381 13.1007C117.381 13.3217 117.305 13.5059 117.153 13.6164C117.001 13.7269 116.81 13.8005 116.62 13.8005C116.391 13.8005 116.163 13.6532 115.858 13.3217L113.231 10.5596V13.0639C113.231 13.2481 113.154 13.4322 113.002 13.5795C112.849 13.7269 112.659 13.8005 112.469 13.8005C112.24 13.8005 112.05 13.7269 111.935 13.6164C111.783 13.5059 111.707 13.3217 111.707 13.1007V7.39231H111.631ZM110.793 5.10895H123.817C124.465 5.10895 124.96 5.62455 124.96 6.2138V14.0583C124.96 14.6844 124.426 15.1632 123.817 15.1632H110.793C110.146 15.1632 109.651 14.6475 109.651 14.0583V6.2138C109.651 5.62455 110.184 5.10895 110.793 5.10895ZM106.795 12.9903C107.366 12.9903 107.861 13.4322 107.861 14.0215C107.861 14.5739 107.404 15.0527 106.795 15.0527C106.223 15.0527 105.728 14.6107 105.728 14.0215C105.728 13.4322 106.185 12.9903 106.795 12.9903Z" fill="#FF681D"/>
<g clip-path="url(#clip0)">
<path fill-rule="evenodd" clip-rule="evenodd" d="M89.0861 14.2424C88.0962 14.8685 86.9157 15.2 85.7353 15.2C85.2018 15.2 84.6307 15.0895 84.0978 14.9053C83.6408 14.758 83.1838 14.5002 82.8026 14.2056C82.4603 13.9109 82.1556 13.5427 81.9269 13.1375C81.6986 12.7324 81.5463 12.2537 81.5081 11.7749C81.4699 11.2225 81.4699 10.6701 81.584 10.1544C81.8127 9.04959 82.3456 8.01837 83.1073 7.1713C83.4884 6.76621 83.9072 6.39793 84.4025 6.10329C85.3924 5.47721 86.5728 5.14575 87.7533 5.14575C88.2867 5.14575 88.8579 5.21941 89.3907 5.40355C89.8478 5.55087 90.3048 5.77184 90.6859 6.10329C91.0288 6.39793 91.3335 6.80305 91.5617 7.20813C91.7899 7.61328 91.9046 8.09203 91.9805 8.57084C92.0187 9.08642 92.0187 9.63884 91.9046 10.1544C91.7899 10.7437 91.5999 11.2593 91.3334 11.7749C90.8382 12.8061 90.0383 13.6532 89.0861 14.2424ZM86.1158 13.3217C85.697 13.3217 85.2782 13.248 84.8971 13.0639C84.5925 12.9166 84.326 12.6588 84.1354 12.3641C83.9454 12.0695 83.8308 11.7012 83.7931 11.3698C83.7549 10.9647 83.7549 10.5596 83.869 10.1913C83.9454 9.78616 84.0978 9.38102 84.2878 9.01276C84.4783 8.64445 84.7071 8.31302 85.0118 8.01837C85.3165 7.72377 85.6588 7.50279 86.0399 7.31863C86.4587 7.13447 86.8775 7.06087 87.3345 7.06087C87.7533 7.06087 88.1726 7.13447 88.515 7.31863C88.8196 7.46595 89.0861 7.72377 89.2766 8.01837C89.4672 8.31302 89.5813 8.68128 89.6195 9.01276C89.6578 9.41785 89.6578 9.82299 89.5813 10.1913C89.5054 10.5964 89.3531 11.0015 89.1625 11.3698C88.972 11.7381 88.7437 12.0695 88.4391 12.3641C87.8297 12.9903 86.9916 13.3217 86.1158 13.3217ZM74.7676 7.2818H76.1387C76.5957 7.2818 77.0144 7.35546 77.4332 7.50279C77.7761 7.65011 78.0426 7.83427 78.2331 8.12886C78.4231 8.42351 78.5378 8.75494 78.5755 9.08642C78.6137 9.49151 78.6137 9.89666 78.4996 10.3017C78.4231 10.7069 78.309 11.0751 78.1185 11.4435C77.9285 11.7749 77.6997 12.1064 77.4332 12.3641C77.1286 12.622 76.7857 12.8429 76.4433 12.9903C76.024 13.1375 75.567 13.2112 75.1482 13.2112H73.6248L74.7676 7.2818ZM91.2188 13.9109C91.2188 13.9294 91.2092 13.9478 91.1997 13.9662C91.1901 13.9846 91.1811 14.003 91.1811 14.0214C91.1811 14.0583 91.1811 14.0951 91.1429 14.1319C91.1047 14.3161 91.1047 14.5002 91.1811 14.6475C91.257 14.7948 91.3711 14.9053 91.4858 14.979C91.6376 15.0527 91.8281 15.0895 92.0187 15.0895C92.2469 15.0895 92.4757 15.0527 92.6662 14.979C92.8186 14.9053 92.9709 14.7948 93.085 14.6475C93.1991 14.5002 93.3133 14.3161 93.3897 14.1319L95.3701 8.60761H95.4077L96.0935 14.3161C96.0935 14.4266 96.1317 14.5738 96.2076 14.6843C96.2841 14.8317 96.3982 14.9053 96.5123 14.979C96.7029 15.0895 96.9311 15.1263 97.1217 15.1263C97.3499 15.1263 97.5787 15.0895 97.8069 14.979C97.9592 14.9053 98.1116 14.7948 98.2639 14.6843C98.3786 14.5738 98.4544 14.4634 98.5309 14.3161L101.463 8.60761H101.501L101.311 14.1319C101.311 14.3161 101.311 14.5002 101.387 14.6475C101.463 14.7948 101.539 14.9053 101.692 14.979C102.072 15.1263 102.491 15.1263 102.872 14.979C103.062 14.9053 103.215 14.7948 103.329 14.6475C103.443 14.5002 103.557 14.3161 103.596 14.1319C103.596 14.0951 103.596 14.0583 103.634 14.0214V13.9109L103.71 6.32427C103.71 6.21378 103.672 6.06647 103.634 5.95598C103.617 5.93201 103.601 5.90629 103.584 5.87998C103.523 5.78503 103.457 5.6822 103.367 5.62453C103.253 5.51404 103.1 5.44038 102.948 5.36672C102.796 5.29307 102.605 5.25624 102.415 5.25624C102.186 5.25624 101.92 5.29307 101.692 5.40355C101.463 5.47721 101.272 5.62453 101.082 5.77184C100.93 5.91915 100.815 6.06647 100.701 6.25061L97.8451 11.6276H97.8069L97.0834 6.25061C97.0452 6.06647 96.9693 5.91915 96.8934 5.77184C96.7788 5.62453 96.6264 5.47721 96.4364 5.40355C96.2459 5.29307 96.0171 5.25624 95.7889 5.25624C95.5983 5.25624 95.4077 5.29307 95.2177 5.36672C95.0272 5.44038 94.8748 5.51404 94.7225 5.62453C94.5702 5.73499 94.4561 5.84545 94.3419 5.95591L94.3414 5.95598C94.2273 6.06647 94.1514 6.17695 94.1132 6.32427L91.2188 13.9109ZM71.188 14.5002C71.1498 14.3529 71.1498 14.1688 71.188 14.0214L72.5967 6.39793C72.6349 6.21378 72.7491 5.99281 72.8632 5.8455C73.0155 5.69818 73.1678 5.55087 73.3584 5.47721C73.5872 5.36672 73.7772 5.3299 74.006 5.3299H76.5192C77.2427 5.3299 78.0044 5.44038 78.6901 5.69818C79.8706 6.10329 80.7082 7.0977 80.8987 8.27619C81.0128 8.97593 81.0128 9.67567 80.8605 10.3386C80.7082 11.0383 80.4799 11.7012 80.0988 12.2905C79.7565 12.8429 79.2995 13.3585 78.766 13.7637C78.1949 14.2056 77.5856 14.5002 76.938 14.7212C76.2528 14.9422 75.4911 15.0527 74.7676 15.0527H72.1397C72.0256 15.0527 71.8733 15.0527 71.7591 15.0158C71.645 14.979 71.5304 14.9053 71.4163 14.8317C71.3021 14.7212 71.2257 14.6107 71.188 14.5002Z" fill="#161616"/>
<path fill-rule="evenodd" clip-rule="evenodd" d="M65.9327 13.2849C65.4757 13.2849 65.0564 13.2112 64.6758 13.0271C64.3329 12.8798 64.0283 12.622 63.8 12.3273C63.5712 12.0327 63.3812 11.7012 63.2666 11.333C63.1525 10.9647 63.1142 10.5596 63.1142 10.1544C63.1142 9.74934 63.1907 9.34419 63.3048 8.97593C63.4189 8.60762 63.6095 8.27619 63.8383 7.98154C64.0665 7.68695 64.3711 7.46596 64.714 7.2818C65.0564 7.09765 65.4757 7.02404 65.9327 7.02404C66.3897 7.02404 66.8085 7.09765 67.1514 7.2818C67.4937 7.46596 67.7984 7.68695 68.0272 7.98154C68.2554 8.27619 68.446 8.60762 68.5601 8.97593C68.6742 9.34419 68.7507 9.74934 68.7507 10.1544C68.7507 10.5596 68.6742 10.9647 68.5983 11.333C68.4842 11.7012 68.2937 12.0327 68.0649 12.3273C67.8366 12.622 67.532 12.8429 67.1891 13.0271C66.8467 13.2112 66.4274 13.2849 65.9327 13.2849ZM50.8902 14.0214C50.8902 14.2424 50.9282 14.4266 51.0424 14.6107C51.1186 14.758 51.271 14.8685 51.4233 14.979C51.5756 15.0527 51.766 15.0895 51.9945 15.0895C52.223 15.0895 52.4134 15.0527 52.5658 14.979C52.7181 14.9053 52.8704 14.7948 52.9466 14.6107C53.0608 14.4634 53.0989 14.2424 53.0989 14.0214V8.97593H53.137L57.8589 14.6107C57.9354 14.6843 58.0113 14.758 58.1259 14.8317C58.2401 14.9053 58.3542 14.9422 58.4683 14.979C58.583 15.0158 58.6971 15.0527 58.773 15.0527C59.0017 15.0527 59.1917 15.0158 59.3441 14.9422C59.4964 14.8685 59.6487 14.758 59.7252 14.5739C59.8393 14.4266 59.8775 14.2056 59.8775 13.9846V6.32427C59.8775 6.1033 59.8393 5.91916 59.7252 5.73501C59.6111 5.5877 59.4964 5.47722 59.3441 5.36673C59.1917 5.29307 59.0017 5.25625 58.773 5.25625C58.5447 5.25625 58.3542 5.29307 58.2018 5.36673C58.0495 5.44039 57.8972 5.55087 57.8213 5.73501C57.7448 5.88233 57.6689 6.1033 57.6689 6.32427V11.4435H57.6307L52.9085 5.69819C52.8323 5.62453 52.7561 5.55087 52.6419 5.47722C52.5277 5.40356 52.4134 5.36673 52.2992 5.3299C52.1849 5.29307 52.0707 5.25625 51.9565 5.25625C51.728 5.25625 51.5376 5.29307 51.3852 5.36673C51.2329 5.44039 51.0806 5.55087 51.0044 5.73501C50.8902 5.88233 50.8521 6.1033 50.8521 6.32427V14.0214H50.8902ZM41.1412 14.0214C41.1412 14.2424 41.1792 14.4266 41.2935 14.6107C41.4077 14.758 41.522 14.8685 41.6743 14.979C41.8266 15.0527 42.017 15.0895 42.2455 15.0895C42.474 15.0895 42.6644 15.0527 42.8168 14.979C42.9691 14.9053 43.1214 14.7948 43.1976 14.6107C43.3118 14.4634 43.3499 14.2424 43.3499 14.0214V11.0752H47.4628V14.0214C47.4628 14.2424 47.5008 14.4266 47.6151 14.6107C47.6913 14.758 47.8436 14.8685 47.9959 14.979C48.1482 15.0527 48.3386 15.0895 48.5671 15.0895C48.7956 15.0895 48.986 15.0527 49.1384 14.979C49.2907 14.9053 49.443 14.7948 49.5192 14.6107C49.6334 14.4634 49.6715 14.2424 49.6715 14.0214V6.32427C49.6715 6.1033 49.6334 5.91916 49.5192 5.73501C49.405 5.5877 49.2907 5.47722 49.1384 5.36673C48.986 5.29307 48.7956 5.25625 48.5671 5.25625C48.3386 5.25625 48.1482 5.29307 47.9959 5.36673C47.8436 5.44039 47.6913 5.55087 47.6151 5.73501C47.5008 5.88233 47.4628 6.1033 47.4628 6.32427V9.19692H43.388V6.32427C43.388 6.1033 43.3499 5.91916 43.2357 5.73501C43.1214 5.5877 43.0072 5.47722 42.8549 5.36673C42.7025 5.29307 42.5121 5.25625 42.2837 5.25625C42.0551 5.25625 41.8647 5.29307 41.7124 5.36673C41.5601 5.44039 41.4078 5.55087 41.3316 5.73501C41.2174 5.88233 41.1792 6.1033 41.1792 6.32427L41.1412 14.0214ZM32.0777 10.1544C32.0777 10.7069 32.1538 11.2593 32.3062 11.7381C32.4585 12.2537 32.687 12.6956 32.9916 13.1007C33.2963 13.5059 33.639 13.8741 34.0579 14.1688C34.4768 14.4634 34.9719 14.7212 35.4669 14.8685C36.0001 15.0158 36.5713 15.1263 37.1806 15.1263C37.3711 15.1263 37.5615 15.1263 37.828 15.0895C38.0565 15.0895 38.3231 15.0527 38.5516 14.979C38.8182 14.9422 39.0467 14.8685 39.2752 14.7948C39.5037 14.7212 39.7321 14.6107 39.9226 14.5002C40.113 14.3898 40.2653 14.2424 40.3795 14.0583C40.4938 13.9109 40.5318 13.69 40.57 13.5059C40.57 13.4322 40.5318 13.3217 40.4938 13.248C40.4557 13.1375 40.3795 13.027 40.3033 12.9534C40.2272 12.8429 40.113 12.7693 39.9987 12.6956C39.8845 12.622 39.7321 12.5851 39.5798 12.5851C39.4275 12.5851 39.2752 12.622 39.1228 12.6588C38.9705 12.7325 38.8182 12.7693 38.6278 12.8429C38.4374 12.9166 38.2469 12.9903 38.0185 13.027C37.79 13.1007 37.5234 13.1007 37.2187 13.1007C36.7617 13.1007 36.3428 13.027 36.0001 12.8429C35.6574 12.6956 35.3527 12.4746 35.1242 12.18C34.8957 11.8854 34.7053 11.5907 34.5911 11.2225C34.4768 10.8542 34.4006 10.4859 34.4006 10.0808C34.4006 9.67567 34.4768 9.27059 34.5911 8.90227C34.7053 8.53401 34.8957 8.20253 35.1242 7.90788C35.3527 7.61329 35.6574 7.3923 36.0001 7.24497C36.3428 7.09765 36.7617 6.98721 37.2187 6.98721C37.5234 6.98721 37.79 7.02404 38.0185 7.06087C38.2469 7.09765 38.4374 7.17131 38.5897 7.20814C38.742 7.2818 38.8943 7.31863 39.0467 7.35547C39.199 7.3923 39.3513 7.42913 39.4656 7.42913C39.656 7.42913 39.8083 7.3923 39.9606 7.31863C40.113 7.24497 40.1891 7.13448 40.2653 6.98721C40.3415 6.83988 40.3795 6.69256 40.3795 6.54523C40.3795 6.3611 40.3033 6.17696 40.2272 6.02964C40.113 5.88233 39.9606 5.73502 39.8083 5.62453C39.6179 5.51404 39.4275 5.40356 39.199 5.3299C38.9705 5.25625 38.742 5.18259 38.5135 5.14576L37.828 5.03528C37.5995 4.99844 37.4091 4.99844 37.2187 4.99844C36.6094 4.99844 36.0382 5.0721 35.5051 5.25625C34.9719 5.40356 34.5149 5.66136 34.096 5.95599C33.6771 6.25062 33.2963 6.6189 33.0297 7.02404C32.7251 7.42913 32.4966 7.90788 32.3442 8.38669C32.1538 9.08643 32.0777 9.60201 32.0777 10.1544ZM25.5657 13.9846C25.5657 14.2056 25.6037 14.3529 25.718 14.537C25.8322 14.6843 25.9465 14.7948 26.1369 14.9053C26.3273 14.979 26.5177 15.0158 26.7081 15.0158H30.5544C30.7829 15.0158 30.9733 14.979 31.1256 14.8685C31.2779 14.7948 31.3922 14.6475 31.4684 14.537C31.5445 14.3898 31.5826 14.2424 31.5826 14.0951C31.5826 13.9478 31.5445 13.8005 31.4684 13.6532C31.3922 13.5059 31.2779 13.3954 31.1256 13.3217C30.9733 13.248 30.7829 13.1744 30.5163 13.1744H27.7744V11.112H30.2116C30.4401 11.112 30.6686 11.0752 30.821 10.9647C30.9733 10.891 31.0875 10.7437 31.2018 10.6332C31.2779 10.4859 31.316 10.3386 31.316 10.1913C31.316 10.044 31.2779 9.89666 31.2018 9.74934C31.1256 9.60201 31.0114 9.49152 30.821 9.41785C30.6686 9.34419 30.4401 9.27059 30.2116 9.27059H27.7744V7.2818H30.4401C30.6686 7.2818 30.859 7.24497 31.0114 7.13448C31.1637 7.06087 31.2779 6.91355 31.3541 6.80305C31.4303 6.65573 31.4684 6.5084 31.4684 6.3611C31.4684 6.21379 31.4303 6.06647 31.3541 5.91916C31.2779 5.77185 31.1637 5.66136 31.0114 5.5877C30.859 5.51404 30.6686 5.44039 30.4021 5.44039H26.7081C26.4415 5.44039 26.213 5.47722 26.0607 5.5877C25.8703 5.69819 25.7561 5.8455 25.6799 5.99282C25.6037 6.17696 25.5657 6.3611 25.5657 6.58206V13.9846ZM20.1961 14.0214C20.1961 14.2424 20.2342 14.4266 20.3484 14.6107C20.4627 14.758 20.5769 14.8685 20.7293 14.979C20.8816 15.0527 21.072 15.0895 21.3005 15.0895C21.529 15.0895 21.7194 15.0527 21.8717 14.979C22.024 14.9053 22.1764 14.7948 22.2525 14.6107C22.3287 14.4634 22.4049 14.2424 22.4049 14.0214V7.20814H24.0424C24.2709 7.20814 24.4613 7.17131 24.6136 7.06087C24.7659 6.98721 24.8802 6.83988 24.9563 6.72939C25.0325 6.58206 25.0706 6.43476 25.0706 6.28745C25.0706 6.14013 25.0325 5.99282 24.9563 5.8455C24.8802 5.69819 24.7659 5.5877 24.6136 5.51404C24.4613 5.44039 24.2709 5.36673 24.0804 5.36673H18.5966C18.3682 5.36673 18.2158 5.40356 18.0635 5.51404C17.9112 5.5877 17.797 5.73502 17.7208 5.8455C17.6446 5.99282 17.6065 6.14013 17.6065 6.28745C17.6065 6.43476 17.6446 6.58206 17.7208 6.72939C17.797 6.87671 17.9112 6.98721 18.0635 7.06087C18.2158 7.13448 18.4062 7.20814 18.6347 7.20814H20.1961V14.0214ZM65.9327 15.1632C66.5421 15.1632 67.1132 15.0895 67.6461 14.9053C68.1795 14.758 68.6365 14.5002 69.0553 14.2056C69.4741 13.9109 69.8552 13.5427 70.1217 13.1375C70.4264 12.7325 70.6546 12.2537 70.8069 11.7749C70.9592 11.2593 71.0357 10.7437 71.0357 10.1913C71.0357 9.63884 70.9592 9.12326 70.8069 8.60762C70.6546 8.09204 70.4264 7.65012 70.1217 7.24497C69.817 6.83988 69.4741 6.47159 69.0171 6.17696C68.5983 5.88233 68.1031 5.62453 67.6079 5.47722C67.075 5.29307 66.5421 5.21941 65.9327 5.21941C65.3234 5.21941 64.7517 5.29307 64.2188 5.47722C63.6859 5.62453 63.2289 5.88233 62.8096 6.17696C62.3908 6.47159 62.0102 6.83988 61.7438 7.24497C61.4391 7.65012 61.2103 8.12887 61.058 8.60762C60.9057 9.12326 60.8298 9.63884 60.8298 10.1913C60.8298 10.7437 60.9057 11.2961 61.058 11.7749C61.2103 12.2905 61.4391 12.7325 61.7438 13.1375C62.0479 13.5427 62.3908 13.9109 62.8096 14.2056C63.2289 14.5002 63.7236 14.758 64.2188 14.9053C64.7899 15.0527 65.361 15.1632 65.9327 15.1632Z" fill="#FF681D"/>
</g>
<defs>
<clipPath id="clip0">
<rect width="86.1032" height="10.2015" fill="white" transform="translate(17.6065 4.99844)"/>
</clipPath>
</defs>
</svg>
