<svg width="24" height="24" viewBox="0 0 24 24" fill="none" xmlns="http://www.w3.org/2000/svg">
<path fill-rule="evenodd" clip-rule="evenodd" d="M8.0343 16.5041C7.99322 16.5189 7.95056 16.5312 7.90643 16.5408L6.25602 16.9013C5.83077 16.9941 5.39428 16.8012 5.17664 16.4243L4.75685 15.6972C4.53921 15.3202 4.59042 14.8458 4.88347 14.5239L6.02082 13.2749C6.05151 13.2411 6.08382 13.2101 6.11748 13.1817C5.96214 12.4099 5.95746 11.606 6.11613 10.8172C6.08293 10.7891 6.05106 10.7584 6.02076 10.7251L4.88342 9.47605C4.59036 9.1542 4.53915 8.67974 4.75679 8.30278L5.17656 7.57572C5.3942 7.19875 5.83069 7.00587 6.25595 7.09874L7.90635 7.45918C7.95033 7.46878 7.99284 7.48105 8.03378 7.49575C8.63756 6.96397 9.33611 6.56607 10.0821 6.31472C10.0899 6.27138 10.1006 6.22789 10.1145 6.18446L10.6275 4.57495C10.7597 4.16023 11.145 3.87866 11.5803 3.87866H12.4199C12.8551 3.87866 13.2404 4.16023 13.3726 4.57495L13.8857 6.18446C13.8994 6.22749 13.91 6.27057 13.9178 6.31352C14.2871 6.43849 14.6495 6.60148 15 6.80385C15.3505 7.00619 15.6728 7.23853 15.9656 7.49577C16.0067 7.481 16.0494 7.46868 16.0935 7.45903L17.7439 7.0986C18.1692 7.00573 18.6057 7.19861 18.8233 7.57558L19.2431 8.30267C19.4607 8.67963 19.4095 9.15408 19.1165 9.47593L17.9791 10.725C17.9485 10.7587 17.9162 10.7897 17.8826 10.8181C18.0379 11.5899 18.0426 12.3939 17.884 13.1828C17.9171 13.2109 17.949 13.2415 17.9793 13.2748L19.1166 14.5239C19.4097 14.8457 19.4609 15.3202 19.2432 15.6971L18.8235 16.4242C18.6058 16.8011 18.1693 16.994 17.7441 16.9012L16.0937 16.5407C16.0498 16.5311 16.0073 16.5189 15.9664 16.5042C15.3625 17.0361 14.6639 17.434 13.9177 17.6854C13.91 17.7287 13.8992 17.7722 13.8854 17.8156L13.3723 19.4251C13.2401 19.8398 12.8548 20.1214 12.4196 20.1214H11.58C11.1447 20.1214 10.7594 19.8398 10.6272 19.4251L10.1142 17.8156C10.1004 17.7725 10.0898 17.7294 10.082 17.6864C9.71285 17.5614 9.35049 17.3985 9.00004 17.1962C8.64953 16.9938 8.32716 16.7614 8.0343 16.5041ZM12 14C13.1046 14 14 13.1046 14 12C14 10.8954 13.1046 10 12 10C10.8955 10 10 10.8954 10 12C10 13.1046 10.8955 14 12 14Z" stroke="#FFF" />
</svg>
