<svg
  width="24"
  height="24"
  viewBox="0 0 24 24"
  fill="none"
  xmlns="http://www.w3.org/2000/svg"
>
  <path
    fillRule="evenodd"
    clipRule="evenodd"
    d="M5 4C3.34315 4 2 5.34315 2 7V17C2 18.6569 3.34315 20 5 20H19C20.6569 20 22 18.6569 22 17V7C22 5.34315 20.6569 4 19 4H5ZM4 7C4 6.44772 4.44772 6 5 6H19C19.5523 6 20 6.44772 20 7V17C20 17.5523 19.5523 18 19 18H5C4.44772 18 4 17.5523 4 17V7ZM13 8C13 7.44772 13.4477 7 14 7H18C18.5523 7 19 7.44772 19 8V12C19 12.5523 18.5523 13 18 13H14C13.4477 13 13 12.5523 13 12V8ZM15 9V11H17V9H15ZM5 16C5 15.4477 5.44772 15 6 15H18C18.5523 15 19 15.4477 19 16C19 16.5523 18.5523 17 18 17H6C5.44772 17 5 16.5523 5 16ZM6 7C5.44772 7 5 7.44772 5 8C5 8.55228 5.44772 9 6 9H9C9.55228 9 10 8.55228 10 8C10 7.44772 9.55228 7 9 7H6ZM5 12C5 11.4477 5.44772 11 6 11H9C9.55228 11 10 11.4477 10 12C10 12.5523 9.55228 13 9 13H6C5.44772 13 5 12.5523 5 12Z"
  />
</svg>
