<svg
  width="16"
  height="12"
  viewBox="0 0 16 12"
  fill="none"
  xmlns="http://www.w3.org/2000/svg"
>
  <path
    fillRule="evenodd"
    clipRule="evenodd"
    d="M14.2474 0.341509C14.6111 -0.0741276 15.2429 -0.116245 15.6585 0.247437C16.0741 0.611119 16.1163 1.24288 15.7526 1.65852L7.00258 11.6585C6.81739 11.8702 6.55164 11.994 6.27047 11.9998C5.9893 12.0056 5.7187 11.8927 5.525 11.6888L0.775003 6.68876C0.394617 6.28836 0.410846 5.6554 0.811253 5.27501C1.21166 4.89463 1.84462 4.91086 2.225 5.31126L6.21963 9.51613L14.2474 0.341509ZM6.25 11L6.61083 10.5876C6.51824 10.6933 6.38549 10.7551 6.24505 10.758C6.10446 10.7608 5.96916 10.7044 5.87232 10.6024L6.25 11Z"
    fill="#42BBF8"
  />
</svg>
