<svg
  width="24"
  height="24"
  viewBox="0 0 24 24"
  fill="none"
  xmlns="http://www.w3.org/2000/svg"
>
  <path
    fillRule="evenodd"
    clipRule="evenodd"
    d="M12 1C5.92487 1 1 5.92487 1 12C1 18.0751 5.92487 23 12 23C18.0751 23 23 18.0751 23 12C23 5.92487 18.0751 1 12 1ZM3 12C3 7.02944 7.02944 3 12 3C16.9706 3 21 7.02944 21 12C21 16.9706 16.9706 21 12 21C7.02944 21 3 16.9706 3 12ZM9.70709 8.29288C9.31657 7.90235 8.6834 7.90235 8.29288 8.29288C7.90235 8.6834 7.90235 9.31657 8.29288 9.70709L10.5858 12L8.29288 14.2929C7.90235 14.6834 7.90235 15.3166 8.29288 15.7071C8.6834 16.0976 9.31657 16.0976 9.70709 15.7071L12 13.4142L14.2929 15.7071C14.6834 16.0976 15.3166 16.0976 15.7071 15.7071C16.0976 15.3166 16.0976 14.6834 15.7071 14.2929L13.4142 12L15.7071 9.7071C16.0976 9.31657 16.0976 8.68341 15.7071 8.29288C15.3166 7.90236 14.6834 7.90236 14.2929 8.29288L12 10.5858L9.70709 8.29288Z"
  />
</svg>
