<svg width="22" height="22" viewBox="0 0 22 22" fill="none" xmlns="http://www.w3.org/2000/svg">
<path fill-rule="evenodd" clip-rule="evenodd" d="M11 0C4.92487 0 0 4.92487 0 11C0 17.0751 4.92487 22 11 22C17.0751 22 22 17.0751 22 11C22 4.92487 17.0751 0 11 0ZM2 11C2 6.02944 6.02944 2 11 2C15.9706 2 20 6.02944 20 11C20 15.9706 15.9706 20 11 20C6.02944 20 2 15.9706 2 11ZM8.70709 7.29288C8.31657 6.90235 7.6834 6.90235 7.29288 7.29288C6.90235 7.6834 6.90235 8.31657 7.29288 8.70709L9.58578 11L7.29288 13.2929C6.90235 13.6834 6.90235 14.3166 7.29288 14.7071C7.6834 15.0976 8.31657 15.0976 8.70709 14.7071L11 12.4142L13.2929 14.7071C13.6834 15.0976 14.3166 15.0976 14.7071 14.7071C15.0976 14.3166 15.0976 13.6834 14.7071 13.2929L12.4142 11L14.7071 8.7071C15.0976 8.31657 15.0976 7.68341 14.7071 7.29288C14.3166 6.90236 13.6834 6.90236 13.2929 7.29288L11 9.58578L8.70709 7.29288Z" fill="#42BBF8"/>
</svg>
