<svg
  width="24"
  height="24"
  viewBox="0 0 24 24"
  fill="currentColor"
  xmlns="http://www.w3.org/2000/svg"
>
  <path
    fillRule="evenodd"
    clipRule="evenodd"
    d="M1.13414 7.49992C0.857999 7.02163 1.02187 6.41004 1.50017 6.1339L4.09824 4.6339C4.57654 4.35776 5.18813 4.52163 5.46427 4.99992L11.4643 15.3922C12.2927 16.8271 14.1275 17.3187 15.5623 16.4903L19.8925 13.9903C20.3708 13.7142 20.9824 13.878 21.2585 14.3563C21.5346 14.8346 21.3708 15.4462 20.8925 15.7224L16.5623 18.2224C14.1709 19.6031 11.1129 18.7837 9.73222 16.3922L4.23222 6.86595L2.50017 7.86595C2.02187 8.14209 1.41028 7.97822 1.13414 7.49992ZM1.00017 16.9999C1.00017 16.4476 1.44788 15.9999 2.00017 15.9999H7.00017C7.55245 15.9999 8.00017 16.4476 8.00017 16.9999C8.00017 17.5522 7.55245 17.9999 7.00017 17.9999H2.00017C1.44788 17.9999 1.00017 17.5522 1.00017 16.9999ZM1.00017 12.9999C1.00017 12.4476 1.44788 11.9999 2.00017 11.9999H5.00017C5.55245 11.9999 6.00017 12.4476 6.00017 12.9999C6.00017 13.5522 5.55245 13.9999 5.00017 13.9999H2.00017C1.44788 13.9999 1.00017 13.5522 1.00017 12.9999ZM19.5002 20.9999C20.3286 20.9999 21.0002 20.3284 21.0002 19.4999C21.0002 18.6715 20.3286 17.9999 19.5002 17.9999C18.6717 17.9999 18.0002 18.6715 18.0002 19.4999C18.0002 20.3284 18.6717 20.9999 19.5002 20.9999Z"
  />
  <path
    fillRule="evenodd"
    clipRule="evenodd"
    d="M10.3594 11.5245C9.80709 10.5679 10.1348 9.34477 11.0914 8.79248L14.4975 6.82597C15.4541 6.27369 16.6773 6.60144 17.2296 7.55803L19.1961 10.9641C19.7484 11.9207 19.4206 13.1439 18.464 13.6962L15.0579 15.6627C14.1013 16.215 12.8782 15.8872 12.3259 14.9306L10.3594 11.5245ZM15.4975 8.55803L12.0914 10.5245L14.0579 13.9306L17.464 11.9641L15.4975 8.55803Z"
  />
</svg>
