<svg width="22" height="19" viewBox="0 0 22 19" fill="none" xmlns="http://www.w3.org/2000/svg">
<path fill-rule="evenodd" clip-rule="evenodd" d="M2 2V15H20V9.74161C20 9.34304 19.7633 8.98253 19.3976 8.82405L16.7018 7.65585C16.2091 7.44238 15.823 7.03981 15.6303 6.5387L14.572 3.78713C14.5049 3.61273 14.3844 3.464 14.2278 3.36217C12.8601 2.47318 11.2639 2 9.63268 2H2ZM0 2C0 0.895429 0.895433 0 2 0H9.63268C11.6508 0 13.6257 0.585416 15.3178 1.68528C15.8279 2.0169 16.2202 2.50125 16.4387 3.06917L17.497 5.82074L20.1928 6.98894C21.29 7.46437 22 8.5459 22 9.74161V15C22 16.1046 21.1046 17 20 17H2C0.895431 17 0 16.1046 0 15V2Z" fill="#42BBF8"/>
<path fill-rule="evenodd" clip-rule="evenodd" d="M5.5 16C5.22386 16 5 16.2239 5 16.5C5 16.7761 5.22386 17 5.5 17C5.77614 17 6 16.7761 6 16.5C6 16.2239 5.77614 16 5.5 16ZM3 16.5C3 15.1193 4.11929 14 5.5 14C6.88071 14 8 15.1193 8 16.5C8 17.8807 6.88071 19 5.5 19C4.11929 19 3 17.8807 3 16.5Z" fill="#42BBF8"/>
<path fill-rule="evenodd" clip-rule="evenodd" d="M16.5 16C16.2239 16 16 16.2239 16 16.5C16 16.7761 16.2239 17 16.5 17C16.7761 17 17 16.7761 17 16.5C17 16.2239 16.7761 16 16.5 16ZM14 16.5C14 15.1193 15.1193 14 16.5 14C17.8807 14 19 15.1193 19 16.5C19 17.8807 17.8807 19 16.5 19C15.1193 19 14 17.8807 14 16.5Z" fill="#42BBF8"/>
<rect x="4" y="9.42856" width="1.80952" height="9.04762" rx="0.904762" transform="rotate(-90 4 9.42856)" fill="#42BBF8"/>
</svg>
