<svg
  width="24"
  height="24"
  viewBox="0 0 24 24"
  fill="none"
  xmlns="http://www.w3.org/2000/svg"
>
  <path
    fillRule="evenodd"
    clipRule="evenodd"
    d="M19.0711 4.92893C15.1658 1.02369 8.83418 1.02369 4.92893 4.92893C1.02369 8.83417 1.02369 15.1658 4.92893 19.0711C8.83418 22.9763 15.1658 22.9763 19.0711 19.0711C22.9763 15.1658 22.9763 8.83417 19.0711 4.92893ZM6.34315 6.34315C9.22785 3.45844 13.7679 3.23729 16.906 5.67977L5.67977 16.906C3.23729 13.7679 3.45844 9.22785 6.34315 6.34315ZM17.6569 17.6569C14.7721 20.5416 10.2321 20.7627 7.09399 18.3202L18.3202 7.09399C20.7627 10.2321 20.5416 14.7721 17.6569 17.6569Z"
  />
</svg>