<svg width="16" height="20" viewBox="0 0 16 20" fill="none" xmlns="http://www.w3.org/2000/svg">
<path fill-rule="evenodd" clip-rule="evenodd" d="M7.23607 0.944366C6.09975 0.944366 5.06096 1.58637 4.55279 2.60273L4.38197 2.94437H1C0.447715 2.94437 0 3.39208 0 3.94437C0 4.49665 0.447715 4.94437 1 4.94437V16.9444C1 18.6012 2.34315 19.9444 4 19.9444H12C13.6569 19.9444 15 18.6012 15 16.9444V4.94437C15.5523 4.94437 16 4.49665 16 3.94437C16 3.39208 15.5523 2.94437 15 2.94437H11.618L11.4472 2.60273C10.939 1.58637 9.90025 0.944366 8.76393 0.944366H7.23607ZM3 16.9444V4.94437H4.98482C4.9947 4.94451 5.00456 4.94451 5.01441 4.94437H10.9856C10.9954 4.94451 11.0053 4.94451 11.0152 4.94437H13V16.9444C13 17.4967 12.5523 17.9444 12 17.9444H4C3.44772 17.9444 3 17.4967 3 16.9444ZM5 7.94437C4.44771 7.94437 4 8.39208 4 8.94437V13.9444C4 14.4967 4.44771 14.9444 5 14.9444C5.55229 14.9444 6 14.4967 6 13.9444V8.94437C6 8.39208 5.55229 7.94437 5 7.94437ZM8 7.94437C7.44771 7.94437 7 8.39208 7 8.94437V13.9444C7 14.4967 7.44771 14.9444 8 14.9444C8.55229 14.9444 9 14.4967 9 13.9444V8.94437C9 8.39208 8.55229 7.94437 8 7.94437ZM11 7.94437C10.4477 7.94437 10 8.39208 10 8.94437V13.9444C10 14.4967 10.4477 14.9444 11 14.9444C11.5523 14.9444 12 14.4967 12 13.9444V8.94437C12 8.39208 11.5523 7.94437 11 7.94437Z" fill="#42BBF8"/>
</svg>
