<svg
  width="24"
  height="24"
  viewBox="0 0 24 24"
  fill="currentColor"
  xmlns="http://www.w3.org/2000/svg"
>
  <path
    fillRule="evenodd"
    clipRule="evenodd"
    d="M13 5C13 4.44772 12.5523 4 12 4C11.4477 4 11 4.44772 11 5V11.5858L9.70711 10.2929C9.31658 9.90237 8.68342 9.90237 8.29289 10.2929C7.90237 10.6834 7.90237 11.3166 8.29289 11.7071L11.2929 14.7071C11.6834 15.0976 12.3166 15.0976 12.7071 14.7071L15.7071 11.7071C16.0976 11.3166 16.0976 10.6834 15.7071 10.2929C15.3166 9.90237 14.6834 9.90237 14.2929 10.2929L13 11.5858V5ZM1 9C1 8.44772 1.44772 8 2 8H3C4.65685 8 6 9.34315 6 11V17C6 17.5523 6.44772 18 7 18H17C17.5523 18 18 17.5523 18 17V11C18 9.34315 19.3431 8 21 8H22C22.5523 8 23 8.44771 23 9C23 9.55229 22.5523 10 22 10H21C20.4477 10 20 10.4477 20 11V17C20 18.6569 18.6569 20 17 20H7C5.34315 20 4 18.6569 4 17V11C4 10.4477 3.55228 10 3 10H2C1.44772 10 1 9.55228 1 9Z"
  />
</svg>
