<svg
  width="24"
  height="24"
  viewBox="0 0 24 24"
  fill="none"
  xmlns="http://www.w3.org/2000/svg"
>
  <path
    fillRule="evenodd"
    clipRule="evenodd"
    d="M11 2C8.79086 2 7 3.79086 7 6V9.17086C5.83485 9.58276 5 10.6934 5 12V18C5 19.6569 6.34315 21 8 21H16C17.6569 21 19 19.6569 19 18V12C19 10.3431 17.6569 9 16 9H9V6C9 4.89543 9.89543 4 11 4H13C14.1046 4 15 4.89543 15 6V6.5C15 7.05228 15.4477 7.5 16 7.5C16.5523 7.5 17 7.05228 17 6.5V6C17 3.79086 15.2091 2 13 2H11ZM7 12C7 11.4477 7.44772 11 8 11H16C16.5523 11 17 11.4477 17 12V18C17 18.5523 16.5523 19 16 19H8C7.44772 19 7 18.5523 7 18V12Z"
    fill="#404040"
  />
</svg>
