<svg
  width="24"
  height="24"
  viewBox="0 0 24 24"
  fill="currentColor"
  xmlns="http://www.w3.org/2000/svg"
>
  <path
    fillRule="evenodd"
    clipRule="evenodd"
    d="M5 3C3.89543 3 3 3.89543 3 5V19C3 20.1046 3.89543 21 5 21H19C20.1046 21 21 20.1046 21 19V11C21 9.89543 20.1046 9 19 9H15V5C15 3.89543 14.1046 3 13 3H5ZM5 5H13V19H5V17H7C7.55228 17 8 16.5523 8 16C8 15.4477 7.55228 15 7 15H5V13H9C9.55228 13 10 12.5523 10 12C10 11.4477 9.55228 11 9 11H5V9H7C7.55228 9 8 8.55229 8 8C8 7.44771 7.55228 7 7 7H5V5ZM15 19V11H16V13C16 13.5523 16.4477 14 17 14C17.5523 14 18 13.5523 18 13V11H19L19 19H15Z"
  />
</svg>
