<svg
  width="24"
  height="24"
  viewBox="0 0 24 24"
  fill="currentColor"
  xmlns="http://www.w3.org/2000/svg"
>
  <path
    fillRule="evenodd"
    clipRule="evenodd"
    d="M3 5V18H21V12.7416C21 12.343 20.7633 11.9825 20.3976 11.8241L17.7018 10.6559C17.2091 10.4424 16.823 10.0398 16.6303 9.5387L15.572 6.78713C15.5049 6.61273 15.3844 6.464 15.2278 6.36217C13.8601 5.47318 12.2639 5 10.6327 5H3ZM1 5C1 3.89543 1.89543 3 3 3H10.6327C12.6508 3 14.6257 3.58542 16.3178 4.68528C16.8279 5.0169 17.2202 5.50125 17.4387 6.06917L18.497 8.82074L21.1928 9.98894C22.29 10.4644 23 11.5459 23 12.7416V18C23 19.1046 22.1046 20 21 20H3C1.89543 20 1 19.1046 1 18V5Z"
  />
  <path
    fillRule="evenodd"
    clipRule="evenodd"
    d="M9.40006 6.2C9.75561 5.93333 10.2445 5.93333 10.6001 6.2L14.6001 9.2C15.0419 9.53137 15.1314 10.1582 14.8001 10.6C14.4687 11.0418 13.8419 11.1314 13.4001 10.8L10.0001 8.25L6.60006 10.8C6.15823 11.1314 5.53143 11.0418 5.20006 10.6C4.86869 10.1582 4.95823 9.53137 5.40006 9.2L9.40006 6.2ZM6.00006 12C6.00006 11.4477 6.44778 11 7.00006 11C7.55235 11 8.00006 11.4477 8.00006 12V14.5H12.0001V12C12.0001 11.4477 12.4478 11 13.0001 11C13.5523 11 14.0001 11.4477 14.0001 12V14.5C14.0001 15.6046 13.1046 16.5 12.0001 16.5H8.00006C6.89549 16.5 6.00006 15.6046 6.00006 14.5V12ZM9.50006 11C9.22392 11 9.00006 11.2239 9.00006 11.5V12.5C9.00006 12.7761 9.22392 13 9.50006 13H10.5001C10.7762 13 11.0001 12.7761 11.0001 12.5V11.5C11.0001 11.2239 10.7762 11 10.5001 11H9.50006Z"
  />
  <path
    fillRule="evenodd"
    clipRule="evenodd"
    d="M6.5 19C6.22386 19 6 19.2239 6 19.5C6 19.7761 6.22386 20 6.5 20C6.77614 20 7 19.7761 7 19.5C7 19.2239 6.77614 19 6.5 19ZM4 19.5C4 18.1193 5.11929 17 6.5 17C7.88071 17 9 18.1193 9 19.5C9 20.8807 7.88071 22 6.5 22C5.11929 22 4 20.8807 4 19.5Z"
  />
  <path
    fillRule="evenodd"
    clipRule="evenodd"
    d="M17.5 19C17.2239 19 17 19.2239 17 19.5C17 19.7761 17.2239 20 17.5 20C17.7761 20 18 19.7761 18 19.5C18 19.2239 17.7761 19 17.5 19ZM15 19.5C15 18.1193 16.1193 17 17.5 17C18.8807 17 20 18.1193 20 19.5C20 20.8807 18.8807 22 17.5 22C16.1193 22 15 20.8807 15 19.5Z"
  />
</svg>
