<svg width="20" height="19" viewBox="0 0 20 19" fill="none" xmlns="http://www.w3.org/2000/svg">
<path d="M5.1426 14.8125H3.12598C2.56239 14.8125 2.02189 14.5886 1.62337 14.1901C1.22486 13.7916 1.00098 13.2511 1.00098 12.6875L1.00098 8.4375C1.00098 7.87391 1.22486 7.33341 1.62337 6.9349C2.02189 6.53638 2.56239 6.3125 3.12598 6.3125L15.8908 6.3125C16.4544 6.3125 16.9949 6.53638 17.3935 6.9349C17.792 7.33341 18.0158 7.87391 18.0158 8.4375V12.6875C18.0158 13.2511 17.792 13.7916 17.3935 14.1901C16.9949 14.5886 16.4544 14.8125 15.8908 14.8125L13.7659 14.8125" stroke="#42BBF8" stroke-width="2" stroke-linecap="round" stroke-linejoin="round"/>
<path d="M5.26587 4.1875V2.0625C5.26587 1.78071 5.37781 1.51046 5.57707 1.3112C5.77633 1.11194 6.04658 1 6.32837 1H12.7034C12.9852 1 13.2554 1.11194 13.4547 1.3112C13.6539 1.51046 13.7659 1.78071 13.7659 2.0625L13.7659 4.1875M5.26587 16.9375V11.6239H13.7659V16.9375C13.7659 17.2193 13.6539 17.4895 13.4547 17.6888C13.2554 17.8881 12.9852 18 12.7034 18H6.32837C6.04658 18 5.77633 17.8881 5.57707 17.6888C5.37781 17.4895 5.26587 17.2193 5.26587 16.9375Z" stroke="#42BBF8" stroke-width="2" stroke-linecap="round" stroke-linejoin="round"/>
<path d="M16.4221 8.96875C16.4221 8.38195 15.9464 7.90625 15.3596 7.90625C14.7728 7.90625 14.2971 8.38195 14.2971 8.96875C14.2971 9.55555 14.7728 10.0312 15.3596 10.0312C15.9464 10.0312 16.4221 9.55555 16.4221 8.96875Z" fill="#42BBF8"/>
</svg>
