<svg
  width="24"
  height="24"
  viewBox="0 0 24 24"
  fill="currentColor"
  xmlns="http://www.w3.org/2000/svg"
>
  <path
    fillRule="evenodd"
    clipRule="evenodd"
    d="M3.85864 4.60777C4.04561 3.67292 4.86644 3 5.8198 3H18.1802C19.1336 3 19.9544 3.67292 20.1414 4.60777L20.7414 7.60777C20.8979 8.39063 20.5767 9.14032 20 9.58553V15V19.5H21.5C22.0523 19.5 22.5 19.9477 22.5 20.5C22.5 21.0523 22.0523 21.5 21.5 21.5H2.5C1.94772 21.5 1.5 21.0523 1.5 20.5C1.5 19.9477 1.94772 19.5 2.5 19.5H4V15V9.58553C3.42332 9.14032 3.10207 8.39064 3.25864 7.60777L3.85864 4.60777ZM18 10H6V14H18V10ZM5.8198 5L7 5L13 5H14.595L16.605 5H18H18.1802L18.7802 8L18 8L16.905 8L14.895 8H13L11 8H9.10499H7.09501L7 8L5.2198 8L5.8198 5ZM6 16V19.5H18V16H6Z"
  />
</svg>
