<svg width="20" height="20" viewBox="0 0 20 20" fill="none" xmlns="http://www.w3.org/2000/svg">
<path fill-rule="evenodd" clip-rule="evenodd" d="M18 7L18 0.999999C18 0.447714 17.5523 0 17 0C16.4477 0 16 0.447716 16 1L16 7C16 7.55229 16.4477 8 17 8C17.5523 8 18 7.55228 18 7ZM14 1.85715C14 1.30486 13.5523 0.857147 13 0.857147C12.4477 0.857147 12 1.30486 12 1.85715L12 7C12 7.55229 12.4477 8 13 8C13.5523 8 14 7.55229 14 7L14 1.85715ZM1 9C0.447715 9 0 9.44771 0 10C0 10.5523 0.447715 11 1 11H19C19.5523 11 20 10.5523 20 10C20 9.44771 19.5523 9 19 9H1ZM10 1.85715C10 1.30486 9.55228 0.857147 9 0.857147C8.44771 0.857147 8 1.30486 8 1.85715L8 7C8 7.55229 8.44771 8 9 8C9.55228 8 10 7.55229 10 7L10 1.85715ZM7 7L6.99999 1.85715C6.99999 1.30486 6.55228 0.857146 5.99999 0.857147C5.44771 0.857148 4.99999 1.30486 4.99999 1.85715L5 7.00001C5 7.55229 5.44772 8 6 8C6.55229 8 7 7.55229 7 7ZM4 7L3.99999 0.999999C3.99999 0.447714 3.55228 0 2.99999 0C2.44771 0 1.99999 0.447716 1.99999 1L2 7C2 7.55229 2.44772 8 3 8C3.55228 8 4 7.55228 4 7ZM14 13C14 12.4477 13.5523 12 13 12C12.4477 12 12 12.4477 12 13L12 18.1429C12 18.6951 12.4477 19.1429 13 19.1429C13.5523 19.1429 14 18.6951 14 18.1429L14 13ZM18 19L18 13C18 12.4477 17.5523 12 17 12C16.4477 12 16 12.4477 16 13L16 19C16 19.5523 16.4477 20 17 20C17.5523 20 18 19.5523 18 19ZM10 13C10 12.4477 9.55231 12 9.00003 12C8.44775 12 8.00003 12.4477 8.00003 13L8.00003 18.1429C8.00003 18.6951 8.44775 19.1429 9.00003 19.1429C9.55231 19.1429 10 18.6951 10 18.1429L10 13ZM7 18.1429L6.99999 13C6.99999 12.4477 6.55228 12 5.99999 12C5.44771 12 4.99999 12.4477 4.99999 13L5 18.1429C5 18.6951 5.44772 19.1429 6 19.1429C6.55229 19.1429 7 18.6951 7 18.1429ZM4 19L3.99999 13C3.99999 12.4477 3.55228 12 2.99999 12C2.44771 12 1.99999 12.4477 1.99999 13L2 19C2 19.5523 2.44772 20 3 20C3.55228 20 4 19.5523 4 19Z" fill="#42BBF8"/>
</svg>
