<svg width="24" height="24" viewBox="0 0 24 24" fill="none" xmlns="http://www.w3.org/2000/svg">
<path fill-rule="evenodd" clip-rule="evenodd" d="M13 2C13 1.44772 12.5523 1 12 1C11.4477 1 11 1.44772 11 2V4.06189C8.81097 4.33486 6.8966 5.49223 5.62573 7.16516L3.83976 6.13403C3.36147 5.85789 2.74988 6.02177 2.47374 6.50006C2.19759 6.97835 2.36147 7.58994 2.83976 7.86608L4.62431 8.89639C4.22225 9.85073 4 10.8994 4 12V14.5858L3.20711 13.7929C2.81658 13.4024 2.18342 13.4024 1.79289 13.7929C1.40237 14.1834 1.40237 14.8166 1.79289 15.2071L4.29289 17.7071C4.68342 18.0976 5.31658 18.0976 5.70711 17.7071L8.20711 15.2071C8.59763 14.8166 8.59763 14.1834 8.20711 13.7929C7.81658 13.4024 7.18342 13.4024 6.79289 13.7929L6 14.5858V12C6 10.9225 6.28405 9.91125 6.78136 9.03719C6.78909 9.02503 6.79659 9.01265 6.80386 9.00006C6.81086 8.98793 6.81758 8.97572 6.82402 8.96343C7.86655 7.19021 9.79428 6 12 6C14.2063 6 16.1345 7.19087 17.1768 8.9649C17.183 8.97665 17.1895 8.98834 17.1962 8.99994C17.2031 9.01202 17.2103 9.02391 17.2177 9.03559C17.7156 9.91002 18 10.9218 18 12C18 13.0781 17.7157 14.0898 17.2179 14.9641C17.2104 14.9759 17.2032 14.9879 17.1961 15.0001C17.1894 15.0118 17.1829 15.0235 17.1767 15.0354C16.1343 16.8093 14.2062 18 12 18C11.4477 18 11 18.4477 11 19V22C11 22.5523 11.4477 23 12 23C12.5523 23 13 22.5523 13 22V19.9381C15.189 19.6651 17.1033 18.5078 18.3742 16.8349L20.1602 17.8661C20.6385 18.1422 21.2501 17.9784 21.5263 17.5001C21.8024 17.0218 21.6385 16.4102 21.1602 16.134L19.3757 15.1037C19.7777 14.1493 20 13.1006 20 12C20 10.8994 19.7777 9.85067 19.3757 8.89631L21.1603 7.86597C21.6386 7.58982 21.8024 6.97823 21.5263 6.49994C21.2502 6.02165 20.6386 5.85777 20.1603 6.13392L18.3742 7.16509C17.1033 5.4922 15.189 4.33486 13 4.06189V2Z" />
<path fill-rule="evenodd" clip-rule="evenodd" d="M12 11C11.4477 11 11 11.4477 11 12C11 12.5523 11.4477 13 12 13C12.5523 13 13 12.5523 13 12C13 11.4477 12.5523 11 12 11ZM9 12C9 10.3431 10.3431 9 12 9C13.6569 9 15 10.3431 15 12C15 13.6569 13.6569 15 12 15C10.3431 15 9 13.6569 9 12Z"/>
</svg>
