<svg
  width="15"
  height="17"
  viewBox="0 0 15 17"
  fill="none"
  xmlns="http://www.w3.org/2000/svg"
>
  <path d="M4.60913 1.68938C3.59719 1.96826 2.59213 2.27152 1.59482 2.59888C1.50375 2.62837 1.4228 2.68286 1.36118 2.75612C1.29957 2.82938 1.25977 2.91847 1.24632 3.01325C0.657693 7.43006 2.01769 10.6526 3.64013 12.7755C4.32705 13.6833 5.14613 14.483 6.07007 15.1481C6.43769 15.4073 6.76282 15.5943 7.01888 15.7144C7.14638 15.7749 7.25051 15.8153 7.33019 15.8398C7.36504 15.852 7.40098 15.8609 7.43751 15.8663C7.4736 15.8604 7.50915 15.8516 7.54376 15.8398C7.62451 15.8153 7.72863 15.7749 7.85613 15.7144C8.11113 15.5943 8.43732 15.4062 8.80494 15.1481C9.72888 14.483 10.5479 13.6833 11.2349 12.7755C12.8573 10.6537 14.2173 7.43006 13.6287 3.01325C13.6154 2.91843 13.5756 2.82928 13.514 2.756C13.4523 2.68271 13.3713 2.62826 13.2802 2.59888C12.5885 2.37256 11.4208 2.00388 10.2659 1.69044C9.08651 1.37063 8.00169 1.13369 7.43751 1.13369C6.87438 1.13369 5.78851 1.37063 4.60913 1.69044V1.68938ZM4.32651 0.595C5.47932 0.281563 6.70438 0 7.43751 0C8.17063 0 9.39569 0.281563 10.5485 0.595C11.7279 0.91375 12.9168 1.29094 13.6159 1.51937C13.9082 1.6159 14.1674 1.79293 14.3636 2.03012C14.5598 2.26731 14.6852 2.55504 14.7252 2.86025C15.3584 7.61706 13.889 11.1424 12.1061 13.4746C11.3501 14.4723 10.4486 15.3508 9.43182 16.0809C9.08023 16.3336 8.70771 16.5557 8.31832 16.745C8.02082 16.8853 7.70101 17 7.43751 17C7.17401 17 6.85526 16.8853 6.55669 16.745C6.1673 16.5557 5.79478 16.3336 5.44319 16.0809C4.42641 15.3508 3.52494 14.4723 2.76888 13.4746C0.986006 11.1424 -0.483432 7.61706 0.149818 2.86025C0.189861 2.55504 0.315189 2.26731 0.511405 2.03012C0.707621 1.79293 0.966765 1.6159 1.25907 1.51937C2.27396 1.18661 3.29674 0.878395 4.32651 0.595Z" />
  <path d="M9.03125 6.90627C9.03142 7.23599 8.92933 7.55765 8.73903 7.82692C8.54874 8.09618 8.27961 8.2998 7.96875 8.40971L8.37781 10.5241C8.3927 10.601 8.39039 10.6802 8.37105 10.7561C8.35172 10.832 8.31584 10.9027 8.26599 10.9632C8.21613 11.0236 8.15354 11.0722 8.08268 11.1056C8.01182 11.139 7.93445 11.1563 7.85612 11.1563H7.01888C6.94063 11.1561 6.86339 11.1387 6.79266 11.1053C6.72194 11.0718 6.65947 11.0231 6.60973 10.9627C6.56 10.9023 6.52421 10.8317 6.50494 10.7559C6.48567 10.68 6.48338 10.6009 6.49825 10.5241L6.90625 8.40971C6.63081 8.31232 6.38743 8.1411 6.20272 7.91476C6.01801 7.68841 5.89907 7.41564 5.85889 7.12627C5.81872 6.8369 5.85886 6.54205 5.97492 6.27394C6.09099 6.00583 6.27851 5.77479 6.51701 5.60605C6.7555 5.43732 7.03579 5.33739 7.32724 5.31717C7.61869 5.29696 7.91009 5.35725 8.16959 5.49145C8.4291 5.62565 8.64672 5.8286 8.79868 6.07811C8.95064 6.32763 9.0311 6.61412 9.03125 6.90627Z" />
</svg>
