<svg
  width="40"
  height="40"
  viewBox="0 0 40 40"
  fill="none"
  xmlns="http://www.w3.org/2000/svg"
>
  <path
    d="M0 12C0 5.37258 5.37258 0 12 0H28C34.6274 0 40 5.37258 40 12V28C40 34.6274 34.6274 40 28 40H12C5.37258 40 0 34.6274 0 28V12Z"
    fill="white"
  />
  <path
    fillRule="evenodd"
    clipRule="evenodd"
    d="M11 13V26H29V20.7416C29 20.343 28.7633 19.9825 28.3976 19.8241L25.7018 18.6559C25.2091 18.4424 24.823 18.0398 24.6303 17.5387L23.572 14.7871C23.5049 14.6127 23.3844 14.464 23.2278 14.3622C21.8601 13.4732 20.2639 13 18.6327 13H11ZM9 13C9 11.8954 9.89543 11 11 11H18.6327C20.6508 11 22.6257 11.5854 24.3178 12.6853C24.8279 13.0169 25.2202 13.5013 25.4387 14.0692L26.497 16.8207L29.1928 17.9889C30.29 18.4644 31 19.5459 31 20.7416V26C31 27.1046 30.1046 28 29 28H11C9.89543 28 9 27.1046 9 26V13Z"
  />
  <path
    fillRule="evenodd"
    clipRule="evenodd"
    d="M14.5 27C14.2239 27 14 27.2239 14 27.5C14 27.7761 14.2239 28 14.5 28C14.7761 28 15 27.7761 15 27.5C15 27.2239 14.7761 27 14.5 27ZM12 27.5C12 26.1193 13.1193 25 14.5 25C15.8807 25 17 26.1193 17 27.5C17 28.8807 15.8807 30 14.5 30C13.1193 30 12 28.8807 12 27.5Z"
  />
  <path
    fillRule="evenodd"
    clipRule="evenodd"
    d="M25.5 27C25.2239 27 25 27.2239 25 27.5C25 27.7761 25.2239 28 25.5 28C25.7761 28 26 27.7761 26 27.5C26 27.2239 25.7761 27 25.5 27ZM23 27.5C23 26.1193 24.1193 25 25.5 25C26.8807 25 28 26.1193 28 27.5C28 28.8807 26.8807 30 25.5 30C24.1193 30 23 28.8807 23 27.5Z"
  />
  <rect x="16.6191" y="15" width="1.80952" height="9.04762" rx="0.904762" />
  <rect
    x="13"
    y="20.4285"
    width="1.80952"
    height="9.04762"
    rx="0.904762"
    transform="rotate(-90 13 20.4285)"
  />
</svg>
