<svg
  width="24"
  height="17"
  viewBox="0 0 24 17"
  xmlns="http://www.w3.org/2000/svg"
>
  <path
    d="M9.21608 14.8832C9.17099 15.0625 9.09506 15.1907 9.00314 15.2728C8.91444 15.352 8.79305 15.4047 8.62201 15.4047H2.36984C2.19881 15.4047 2.07743 15.352 1.98873 15.2728C1.89681 15.1907 1.82088 15.0625 1.7758 14.8832C1.68424 14.5189 1.73445 13.9931 1.97067 13.4389C2.43716 12.3446 3.59007 11.2338 5.49595 11.2338C6.18763 11.2338 6.78014 11.3801 7.27665 11.6188L7.43318 11.0374C6.88267 10.788 6.23708 10.638 5.49595 10.638C3.33793 10.638 1.98999 11.9105 1.44051 13.1995C1.16874 13.8371 1.08219 14.5029 1.2153 15.0324C1.28255 15.2999 1.40932 15.5442 1.60925 15.7228C1.81239 15.9042 2.07198 16.0005 2.36984 16.0005H8.62201C8.91988 16.0005 9.17947 15.9042 9.38262 15.7228C9.58255 15.5442 9.70932 15.2999 9.77658 15.0324"
    strokeWidth="0.6"
  />
  <path
    fillRule="evenodd"
    clipRule="evenodd"
    d="M5.16132 5.44518C4.01352 5.44518 3.08305 6.4028 3.08305 7.58408C3.08305 8.76537 4.01352 9.72299 5.16132 9.72299C6.30912 9.72299 7.2396 8.76537 7.2396 7.58408C7.2396 6.4028 6.30912 5.44518 5.16132 5.44518ZM2.48926 7.58408C2.48926 6.06529 3.68558 4.83406 5.16132 4.83406C6.63706 4.83406 7.83339 6.06529 7.83339 7.58408C7.83339 9.10288 6.63706 10.3341 5.16132 10.3341C3.68558 10.3341 2.48926 9.10288 2.48926 7.58408Z"
    strokeWidth="0.5"
  />
  <path
    d="M15.0923 14.8832C15.1374 15.0625 15.2133 15.1907 15.3052 15.2728C15.3939 15.352 15.5153 15.4047 15.6863 15.4047H21.9385C22.1095 15.4047 22.2309 15.352 22.3196 15.2728C22.4115 15.1907 22.4875 15.0625 22.5326 14.8832C22.6241 14.5189 22.5739 13.9931 22.3377 13.4389C21.8712 12.3446 20.7183 11.2338 18.8124 11.2338C18.1207 11.2338 17.5282 11.3801 17.0317 11.6188L16.8752 11.0374C17.4257 10.788 18.0713 10.638 18.8124 10.638C20.9704 10.638 22.3184 11.9105 22.8678 13.1995C23.1396 13.8371 23.2262 14.5029 23.093 15.0324C23.0258 15.2999 22.899 15.5442 22.6991 15.7228C22.496 15.9042 22.2364 16.0005 21.9385 16.0005H15.6863C15.3885 16.0005 15.1289 15.9042 14.9257 15.7228C14.7258 15.5442 14.599 15.2999 14.5318 15.0324"
    strokeWidth="0.6"
  />
  <path
    fillRule="evenodd"
    clipRule="evenodd"
    d="M18.5223 5.44518C19.6701 5.44518 20.6005 6.4028 20.6005 7.58408C20.6005 8.76537 19.6701 9.72299 18.5223 9.72299C17.3745 9.72299 16.444 8.76537 16.444 7.58408C16.444 6.4028 17.3745 5.44518 18.5223 5.44518ZM21.1943 7.58408C21.1943 6.06529 19.998 4.83406 18.5223 4.83406C17.0465 4.83406 15.8502 6.06529 15.8502 7.58408C15.8502 9.10288 17.0465 10.3341 18.5223 10.3341C19.998 10.3341 21.1943 9.10288 21.1943 7.58408Z"
    strokeWidth="0.5"
  />
  <path
    fillRule="evenodd"
    clipRule="evenodd"
    d="M7.70869 14.2905C7.82112 14.391 7.97498 14.4577 8.19177 14.4577H16.1167C16.3335 14.4577 16.4874 14.391 16.5998 14.2905C16.7163 14.1865 16.8126 14.0241 16.8697 13.7967C16.9858 13.335 16.9221 12.6685 16.6227 11.9661C16.0314 10.579 14.57 9.17096 12.1543 9.17096C9.73847 9.17096 8.2771 10.579 7.68581 11.9661C7.38639 12.6685 7.32273 13.335 7.43879 13.7967C7.49594 14.0241 7.59218 14.1865 7.70869 14.2905ZM7.01379 11.6626C7.71029 10.0287 9.41887 8.41571 12.1543 8.41571C14.8896 8.41571 16.5982 10.0287 17.2947 11.6626C17.6392 12.4707 17.7489 13.3147 17.5802 13.9859C17.4949 14.325 17.3342 14.6346 17.0808 14.8609C16.8233 15.0909 16.4942 15.213 16.1167 15.213H8.19177C7.81422 15.213 7.48517 15.0909 7.22768 14.8609C6.97427 14.6346 6.81358 14.325 6.72834 13.9859C6.55961 13.3147 6.66932 12.4707 7.01379 11.6626Z"
    strokeWidth="0.5"
  />
  <path
    fillRule="evenodd"
    clipRule="evenodd"
    d="M12.5 1.77778C10.9966 1.77778 9.77778 2.99656 9.77778 4.5C9.77778 6.00344 10.9966 7.22222 12.5 7.22222C14.0034 7.22222 15.2222 6.00344 15.2222 4.5C15.2222 2.99656 14.0034 1.77778 12.5 1.77778ZM9 4.5C9 2.567 10.567 1 12.5 1C14.433 1 16 2.567 16 4.5C16 6.433 14.433 8 12.5 8C10.567 8 9 6.433 9 4.5Z"
    strokeWidth="0.5"
  />
</svg>
